<svg xmlns="http://www.w3.org/2000/svg" version="1.1" xmlns:xlink="http://www.w3.org/1999/xlink" width="1000" height="1000"><metadata><rdf:RDF xmlns:rdf="http://www.w3.org/1999/02/22-rdf-syntax-ns#" xmlns:dc="http://purl.org/dc/elements/1.1/"><rdf:Description><dc:creator>RealFaviconGenerator</dc:creator><dc:source>https://realfavicongenerator.net</dc:source></rdf:Description></rdf:RDF></metadata><g clip-path="url(#SvgjsClipPath1233)"><rect width="1000" height="1000" fill="#100a03"></rect><g transform="matrix(6.923076923076923,0,0,6.923076923076923,50,50)"><svg xmlns="http://www.w3.org/2000/svg" viewBox="0 0 130 130" width="130" height="130"><rect width="130" height="130" fill="#151009"></rect><path d="M65 6 L122 65 L65 124 L8 65 Z" fill="rgba(100,50,5,0.12)" stroke="#cd7d1c" stroke-width="2" stroke-opacity="0.8"></path><path d="M65 18 L110 65 L65 112 L20 65 Z" fill="none" stroke="#cd7d1c" stroke-width="0.7" stroke-opacity="0.28"></path><path d="M28 36 L46 88 L65 52 L84 88 L102 36" stroke="#dcc896" stroke-width="5.5" stroke-linecap="butt" stroke-linejoin="miter" fill="none"></path><path d="M65 6 L61 14 L65 10 L69 14 Z" fill="#cd7d1c" fill-opacity="0.75"></path><path d="M65 124 L61 116 L65 120 L69 116 Z" fill="#cd7d1c" fill-opacity="0.75"></path><path d="M8 65 L16 61 L12 65 L16 69 Z" fill="#cd7d1c" fill-opacity="0.75"></path><path d="M122 65 L114 61 L118 65 L114 69 Z" fill="#cd7d1c" fill-opacity="0.75"></path></svg></g></g><defs><clipPath id="SvgjsClipPath1233"><rect width="1000" height="1000" x="0" y="0" rx="250" ry="250"></rect></clipPath></defs></svg>